<svg version="1" xmlns="http://www.w3.org/2000/svg" width="1800" height="1800" viewBox="0 0 1350.000000 1350.000000"><path d="M663.9 10.4c-.3.3-3.8 1.4-7.6 2.5-9 2.3-13.1 4.8-17.1 10.5-5 6.9-6.2 10.7-6.2 19.1 0 8.5 1.3 12.4 6.5 19.6 1.9 2.7 3.5 5.1 3.5 5.4 0 1-25.2.5-31.9-.7-5-.8-9.6-.9-16.8-.2-8.6.9-10.5 1.5-14.6 4.2-5.8 4.1-7.1 8.2-6.3 19.8 1.5 20.2 4.1 23.4 18.9 23.4h7.3l1.4 21.2c1.7 26.4 2.3 50.9 1.3 52.5-.6.8-6.8 1.2-19.9 1.5l-19.2.3-2.6-8c-1.4-4.4-2.6-8.5-2.6-9.2 0-1.7-8.8-24-10.6-26.8-.9-1.4-2-4.3-2.5-6.5-1.2-5.2-11.1-21.1-15.7-25.1-1.9-1.7-4.7-4.8-6-6.8-10.3-15.5-30.3-26.8-57.7-32.7-3.3-.7-7.4-1.7-9.1-2.2-1.7-.5-6.4-1.3-10.5-1.7-4.1-.4-10.7-1.8-14.7-3.2-7-2.5-7.8-2.6-25-2-17.5.5-17.9.5-30.2 4.6-6.9 2.3-14.1 5.2-16 6.4-3.2 2.1-6.6 3.4-14 5.3-1.4.3-5 3.2-8.1 6.3-3.1 3.1-8 7.9-11 10.7-9.7 9.1-21.3 22.4-24.3 27.7-1.6 2.9-3.9 6.5-5.3 8.1-1.3 1.5-3 4.4-3.8 6.3-.8 2-3 6.1-4.9 9.2-1.9 3.1-3.7 7.4-4.1 9.6-.4 2.2-1.8 7.5-3.1 11.8-3.5 11.2-3.3 20.1.9 51.8 1.3 9.3 2 11.7 5.8 18.5 5.9 10.8 13.9 21.9 16.9 23.8 1.4.8 4.2 3.1 6.4 5 2.1 2 4.4 3.6 5.1 3.6.7 0 3.5 1.7 6.2 3.8 10.7 8.5 28.8 13.8 52.3 15.4 26.1 1.8 29.5 1.5 39-4 .8-.5 2.6-1.5 4-2.2 1.4-.7 3.5-2 4.8-2.8 2.2-1.4 2.2-1.4 2.2 4 0 3.4-1.1 8.7-3 14.4-3.8 11-7 23.4-7 26.8 0 2.7-9.9 22.7-12.9 26-2.4 2.8-5.1 8.4-5.1 10.9 0 1.1-.3 1.7-.7 1.4-.3-.4-1.3.2-2.1 1.4-.8 1.1-1.2 2.3-.9 2.5.3.3-.6 1.6-2 3-1.6 1.6-2.2 3.1-1.8 4.4.4 1.1 0 2.9-.9 4.1-.8 1.2-1.2 2.8-.9 3.6.3.8-.3 2.4-1.4 3.6-1.1 1.2-3 3.9-4.2 6-1.3 2-3.8 5.5-5.6 7.7-1.8 2.2-5.9 9.2-9.1 15.7-3.3 6.5-6.9 13.3-8.1 15.1-1.2 1.8-3.5 7.7-5.2 13-1.7 5.3-4.5 11.9-6.2 14.7-1.8 2.7-4.1 7.2-5.1 10-1.1 2.7-3.2 6.6-4.7 8.5-4.4 5.6-5.8 8.7-10.2 22.5-2.2 7.1-4.6 13.9-5.2 15-1.8 3.4-6.9 11.8-10.2 17-3.2 5.1-6.5 13.2-8.5 21.5-1.7 6.7-7.3 17.4-16.6 31.5-1.8 2.7-5.4 9.7-8 15.5-9.5 21.3-13.7 29.4-17.9 33.9-5.5 6-8.8 11.3-11 18.1-1 3-2.8 7.6-4.1 10.1-1.2 2.5-2.8 7.4-3.4 10.9-.6 3.4-2.5 8.6-4.1 11.4-4.3 7.8-6.5 14.9-8.7 29.2-5 31.5-6.7 48.9-5.4 55 .8 3.5.8 10 0 22.7-.8 13.4-.8 19.4 0 24.1.7 3.5 1.2 11 1.2 16.7 0 11 .6 15.6 4 30.9 1.2 5.2 2.8 12.9 3.5 17 3.1 16.1 4.4 22.1 5.1 23.2.4.6 1.3 5.6 2 11 .9 6.6 3.1 15.3 6.8 26.4 3.1 9.2 6.1 18.5 6.7 20.7.6 2.1 2.6 7.1 4.5 11 1.9 3.9 4.3 10.1 5.4 13.7 1.1 3.7 2.9 7.5 4 8.5s1.7 2.2 1.4 2.6c-.3.5 0 .9.5.9.6 0 1.1.5 1.1 1.1 0 .6.7 3.5 1.6 6.5 1.1 3.8 2.7 6.4 5.6 9.1 4 3.7 11.3 11.2 14.2 14.5.8.9 2.3 3.6 3.4 6 2.9 6.3 24.7 28 35.5 35.1 4.8 3.2 8.7 6.2 8.7 6.7 0 .6 4.3 5.7 9.5 11.3 8.6 9.5 10.3 10.9 19.7 15.6 9.8 5.1 20.7 11.8 35.3 21.8 3.8 2.6 10.7 6.9 15.5 9.4 4.7 2.5 11.7 6.5 15.6 8.8 4 2.3 10.5 5.3 14.5 6.8 11.9 4.2 31.8 11.3 39.9 14.1l7.5 2.7-45.3.3c-29.6.1-45.1.6-44.7 1.2.3.6.2 1-.3 1s-.9.6-1 1.2c-.1.7-.4 3-.6 5-.2 2.1 0 3.8.4 3.8.9 0 .6 3.3-.5 5-.3.5-1.1.7-1.9.4-.7-.3-1.3.2-1.3 1.1 0 .8.4 1.5.9 1.5s.4.9-.2 2c-1 1.9-2.1 2-35.5 2H333v51.9c0 31.4-.4 53-1 54.5-.6 1.7-.6 2.6 0 2.6s1 2.2 1 5v5h666v-119h-67v-24l-36.7-.1c-21.5 0-36-.4-34.8-.9 1.1-.5 3.7-.9 5.7-.9 2.1-.1 5.7-1 8-2 2.4-1.1 6.1-2.4 8.3-3 2.2-.6 6.7-3.1 10-5.6 3.3-2.4 6.3-4.5 6.8-4.5.4 0 4.1-2.1 8.3-4.6 4.1-2.5 9.6-5.2 12.3-6 2.6-.7 6.9-3 9.4-4.9 2.5-1.9 4.8-3.5 5.1-3.5.2 0 4.9-2.5 10.3-5.6 5.4-3 11.1-5.8 12.7-6.1 1.6-.3 6.1-3 10-6 3.9-2.9 7.9-5.3 8.9-5.3 4.8 0 18-7.2 26.8-14.6 5-4.2 9.3-8.3 9.6-9 .3-.8.9-1.4 1.3-1.4 1.7 0 13.7-11.1 20.1-18.5 1.4-1.7 4.6-4.8 7.1-7 3.9-3.5 12.8-16.8 12.8-19.2 0-.4 2.3-3.5 5-6.8 2.8-3.3 5.3-6.9 5.6-8 .4-1.1 2.6-5.4 4.9-9.5 2.4-4.1 4.6-8.6 5-10 .4-1.4 2.5-6.6 4.6-11.6 2.2-5 3.9-9.9 3.9-10.8 0-.8 1.4-3.8 3.1-6.6 1.7-2.8 4.6-9.3 6.5-14.5 1.8-5.2 3.8-10.3 4.3-11.2 2.1-4.3 9.2-27.6 11-36.3 1.1-5.2 2.7-11.6 3.5-14.1.9-2.6 1.9-6.9 2.2-9.5.3-2.7 1.2-6.7 1.9-8.9.9-2.8 1.6-12.8 2-32.3.3-15.5 1-29.4 1.5-30.8.6-1.4 1-5.8 1-9.9 0-5.8-.6-9-3-15.2-1.7-4.3-3-9.7-3-12.1 0-2.4-.6-5.8-1.3-7.5-3.3-7.7-5-14.7-5.7-23.3-.4-5-1.5-10.7-2.3-12.5-1.8-3.9-2.4-6-3.2-10.9-.3-1.9-1-3.7-1.6-3.8-.5-.2-.9-.8-.9-1.3 0-.6.4-.8.9-.4.5.3 1.2.1 1.6-.5.3-.5.1-1-.5-1-.7 0-.8-.6-.1-1.8.7-1.3.3-3.1-1.5-6.7-1.4-3-2.5-7.4-2.7-11.1-.3-3.3-1-7-1.6-8.2-.9-1.7-.9-2.2.1-2.2.6 0 0-1.3-1.5-2.8-1.7-1.8-2.7-3.9-2.7-5.9 0-1.7-.7-5-1.5-7.3s-1.5-6.6-1.5-9.4c-.1-7.4-1.4-12.4-6.9-24.9-5.4-12.4-11.1-29.7-11.1-33.9 0-1.5-1.3-6.2-2.9-10.5-3.1-8.3-6.1-19.8-8.5-32.8-.9-4.4-3.1-11.2-5-15.1-2-3.9-4-9.3-4.6-11.9-.6-2.9-2.5-6.6-4.4-9-2.6-3.1-3.2-4.7-2.9-7.1.7-4.5-3-17.1-8.2-27.7-5-10.5-9.5-22.9-9.5-26.4 0-4.1-2.8-9.3-8.5-15.6-3.1-3.4-7-9.1-8.7-12.7-1.7-3.6-4.3-8.1-5.8-10-2.5-3.4-7-12.8-8.5-18-.7-2.2-13.3-29.1-16.9-36-.7-1.4-1.9-4.2-2.5-6.2-.7-2-2.5-5.3-4.2-7.4-1.6-2-2.9-4.8-2.9-6.1 0-4.1-2.9-9.5-8-14.9-2.8-2.9-5-5.9-5-6.6 0-.8-2.1-3.9-4.7-7-5.3-6.3-14.4-25.1-17.4-35.8-1-3.6-1.7-6.5-1.6-6.6.1-.1 3.8 1.3 8.2 3.2 4.4 1.8 10.5 3.5 13.5 3.9 3 .4 8.2 1.3 11.5 2 12.1 2.7 23.2 2.9 32.3.6 21.1-5.4 27.5-9.4 48.5-30 16.1-15.7 17-17.1 23.4-35.4 5.8-16.5 8.2-41.9 4.9-51.9-.8-2.4-3-9.7-5.1-16.3-2-6.6-6.2-17.1-9.3-23.4-4.8-9.5-7.1-12.9-13.9-20-4.5-4.7-8.7-9.1-9.3-9.6-.7-.6-6.2-6-12.3-12-6.8-6.7-14-12.7-18.2-15.3-8.4-5-20-9.2-25.2-9.2-2.1 0-7.4-1.2-11.8-2.6-9.7-3.2-23-4.2-33-2.4-3.9.7-10.1 1.6-14 2-3.8.4-12.4 2.6-19 4.8-6.6 2.2-14.1 4.3-16.6 4.6-2.6.3-6.8 1.7-9.4 3.1-2.7 1.4-5.4 2.5-6.2 2.5-.8 0-2.4.5-3.6 1.2-1.2.7-2.9 1.3-3.7 1.4-.8.2-1.6.8-1.8 1.3-.2.6-1.6 1.1-3 1.1-2.1 0-2.4.2-1.2 1s1.1 1-.7 1c-1.2 0-2.4.4-2.8.9-.3.5-2.2 1.5-4.3 2.1-2 .7-6.2 2.7-9.2 4.5-3.1 1.9-6.9 3.7-8.5 4.1-5.9 1.5-22.1 19.9-26.5 30.3-1.3 2.9-4.5 8.2-7.2 11.9-6.4 8.6-17.6 32-19.1 39.6l-1.1 5.9-7.6-.7c-4.1-.3-12.5-.9-18.6-1.2l-11-.7-1.2-6.7c-.8-4.6-.9-15.8-.5-36.2l.6-29.6 5.5-.5c10.7-1.1 14.2-6.1 14.9-21.1.7-12.3-1.1-19-5.9-23.1-2.7-2.3-3.9-2.6-10.2-2.5-3.9.1-15.3-.3-25.4-.7l-18.3-.8 3-4.8c4.1-6.3 4.3-7.5 3.3-19.8-.8-10.1-1.1-11-4.7-16.5-4.4-6.7-5.9-8.1-9.8-8.9-1.5-.4-3.9-1.7-5.3-3-1.3-1.2-3.7-2.5-5.2-2.8-5.5-1.1-14.7-1.9-15.3-1.3zm-70.2 464.8c-.9 327.7-1 342.7-2 342.1-.6-.4-.7-.1-.2.7 1.2 1.9 1.4 40 .3 40-.5 0-.6.6-.1 1.2 1.1 1.8 1.2 23.9.1 26-.5 1-.5 1.8-.1 1.8s.9 1.6.9 3.5c.1 1.9-.3 3.5-.8 3.5s-.6.6-.1 1.2c1.2 1.9 1 63.8-.2 63.8-.5 0-.3.5.5 1.1 1.1.8 1.2 1.2.3 1.6-.7.2-1.3 1.1-1.3 1.9 0 .9.5 1.2 1 .9.6-.3 1 .1 1 1s-.4 1.3-1 1c-.5-.3-1 .3-1 1.4 0 1.2.5 2.1 1 2.1 1.3 0 .9 12.2-.4 13.2-.6.4-.5 3.3.2 7.4.6 3.7.8 7.2.5 7.8-.9 1.4-1 10.6-.1 10.6.5 0 .8.4.8.9 0 1.4-22.9-3.5-24.8-5.3-.5-.6 2.9-478.4 4.6-638.8l.7-61.8 2.3-1.5c1.2-.9 2.2-2.4 2.2-3.3 0-1.5.2-1.5 1-.2s1 1.3 1-.2c0-.9-.9-1.9-2-2.3-2.1-.7-2.3-4.6-.2-5.3.7-.2 1-.8.6-1.3-.3-.5.4-.9 1.6-.9 1.3 0 1.9-.4 1.4-1.2-1.2-1.9 2.7-3.8 7.9-3.8h4.9l-.5 191.2zm30.9-174.8c-.2 8.9-.5 16.3-.6 16.6-.1.3-.1 1.5 0 2.7.1 1.2-.4 3.1-1 4.2-.9 1.7-.8 2.1.6 2.1 1.2 0 1.4.4.7 1.2-1.2 1.7-1.4 5.8-.3 5.8.5 0 .5 1.3 0 3-.5 1.9-.5 2.8.1 2.5.5-.4.9-.1.9.4 0 .6-.5 1.1-1 1.1-.7 0-.7.6 0 2 .8 1.4.8 2 0 2-.7 0-.9.8-.4 2.2 1 3 1.1 20.8.2 20.8-.5 0-.8.5-.8 1.1 0 .5.6.7 1.3.3.8-.5.8-.2-.2.9-1.1 1.4-1.1 2-.1 3.2 1 1.2 1 1.8 0 3s-1 1.5.1 1.5c.9 0 1 .3.4.8-1.4 1-1.7 3.2-.5 3.2.6 0 .5.8-.2 2-1.1 1.7-1 2.2.1 3 1.2.7 1.3 1.5.4 4.4-.8 2.6-.8 3.6.1 4 .7.3.6.8-.4 1.5-1.1.8-1.2 1.1-.2 1.1.8 0 1 .5.5 1.2-1.1 1.8-1 3.2.2 4 .6.5.6.8-.2.8s-1.3 1.4-1.3 3.6c0 2.1.4 3.3 1 2.9.6-.3 1-.1 1 .4 0 .6-.4 1.1-1 1.1-.5 0-1 .7-1 1.5s.5 1.5 1 1.5c.7 0 .7.6.1 1.8-.7 1.3-.6 2.3.1 3 .8.8.8 1.2.2 1.2-.7 0-1.1 3-1.1 7.5-.1 5.3.3 7.3 1.1 6.8.6-.3.6 0-.1.8-1.5 1.6-1.7 9.9-.3 9.9.6 0 1 .5 1 1.1 0 .5-.5.7-1 .4-1.4-.9-.9 10.7.5 11.7.6.5.5.8-.2.8-.8 0-1.3 1.5-1.3 4s.5 4 1.3 4c.9 0 .9.2 0 .8-1.6 1-1.4 29.2.2 29.2.6 0 .3.5-.5 1-1.2.8-1.3 1.3-.3 2.9.6 1 .9 2.2.5 2.6-1.1 1-1 16.5.1 16.5.5 0 .4.7-.3 1.5s-.8 1.5-.2 1.5c.8 0 .9 3.3.2 6.5-.1.5-.2 1.2-.1 1.5.6 1.5.6 16.1 0 19.7-.3 2.4-.3 4.5-.1 4.8.9.9.9 4.6 0 5.1-.4.3-.5 1-.2 1.6.9 1.5.9 13.4 0 18-.4 2.1-.3 3.8.1 3.8s.7 2.4.6 5.2c-.7 21.6.2 168.6 1 169.4.4.4.2 1.4-.5 2.1-.7.9-.8 1.7-.2 2.1.5.4.8 1.8.6 3.2-.6 5.1-.8 68.1-.2 68.5.4.2.3 2.8 0 5.7-.4 2.9-.4 6.4 0 7.8.4 1.4.3 3.7-.1 5.2s-.4 3 .1 3.3c.6.3.5 1.6 0 2.9-.5 1.3-.6 2.7-.3 3 .7.7.6 15.1-.2 17.5-.3 1.1-.1 2.2.5 2.6.6.3.8 1 .5 1.5-.7 1.1-.7 27.6-.1 30.8.3 1.3.1 3.4-.4 4.8-.5 1.3-.6 2.4-.2 2.4.4 0 .7 2.9.7 6.5s-.3 6.5-.6 6.5c-.4 0-.3 1.9.2 4.2.4 2.4.4 4.4.1 4.5-.4.2-.6 2.4-.5 5 .2 4 .5 64.7.4 66.3-.1.7-19.7-.6-21-1.5-.8-.4-1.1-107.9-1.1-365V284.2l11 .1h11.1l-.5 16.1zm30.3-15.8l6.1.7V1019h-2.5c-2 0-2.5-.5-2.5-2.5v-2.6l-2.2 2.1c-1.6 1.5-3.5 2-7.4 2-2.9 0-5.6-.5-5.9-1-.3-.6-1.7-1-3.1-1H635v-92.8c0-51.1-.3-215.8-.7-366l-.6-273.2h7.5c4.1 0 10.3.3 13.7.6zm40.6 365.6c-.4 200.9-.9 365.5-1.2 365.8-.3.3-5.4.7-11.5.8l-11.1.4.6-274.8c.4-151.1.7-315.8.7-366.1V285h23.2l-.7 365.2zm42.5-336c-.1 20.1-.5 28.7-1.3 29.7-.9 1.2-.9 1.3.1.7.6-.4 1.2-.3 1.2.3 0 .5-.5 1.3-1 1.6-.7.5-.8 1.1-.1 1.9 1.1 1.3 1 3.4-.2 5.3-.5.8-.3 1.3.4 1.3s.4.7-.7 1.5c-1.6 1.3-1.7 1.6-.4 2.5 1.3.8 1.3 1-.2 1-2.2 0-2.3.8-.1 3.2 1.5 1.7 1.5 1.9 0 3.6-2.1 2.3-2.2 3.6-.3 2.9 1.9-.7 2.4 1.1 2.4 8.7.1 4.4-.5 6.9-2.3 10.2-1.4 2.4-2 4.4-1.4 4.4.6 0 .7.5.3 1.2-.5.8 0 .9 1.5.5 2-.5 2.2-.2 1.9 3.1-.3 3.1-.7 3.7-2.6 3.6-1.9-.1-2.2.3-1.8 2 .3 1.2.6 3 .7 4.1 0 1.3.3 1.5.6.6.4-1.1.7-1.1 1.3 0 .5.8.3 1.7-.7 2.4-1.4 1-1.4 1.3.1 2.7.9.9 1.1 1.8.6 2-.6.2-.4 1.4.5 3 1.3 2.7 1.3 2.8-1.1 3.4-1.6.4-2.3 1.2-2 2 .3.8.1 1.4-.5 1.4s-.3.7.6 1.6c1.1 1.2 1.3 2 .5 2.9-.8 1-.4 1.4 1.5 1.9 1.4.4 2.5 1.1 2.5 1.6 0 1.2-3.6 3.1-4.4 2.3-.3-.3-.6-.1-.6.6 0 .8.8 1.1 2 .8 2.6-.7 2.7 1.9.1 2.8-2 .6-3.6 3.3-2.6 4.4.3.3 1-.1 1.5-.9.6-1 1-1.1 1-.3 0 .7.7 1 1.6.6 1.2-.4 1.5-.2 1.2.8-.3.8-1.1 1.3-1.8 1.1-1.5-.4-3.1 1.8-2.3 3.1.2.4 1.1.3 1.9-.4 2-1.6 1.8.5-.2 2.5-.8.9-1.2 1.6-.7 1.6 1.1 0 3.7 6 2.9 6.7-.4.4-1.2.1-1.8-.5-1.4-1.4-3.2-1.6-2.4-.3.4.5 0 1.1-.6 1.4-.7.2-.1.8 1.5 1.2 1.5.4 2.7 1.3 2.7 2 0 .8-.8 1.1-2 .8-1.4-.4-2 0-2 1.1 0 .9.6 1.6 1.4 1.6.8 0 1.7.7 2 1.6.5 1.4.4 1.5-.8.5-.8-.7-2-1-2.5-.6-1.6.9-1 7.5.7 8.4 1.4.8 1.4 1.1-.1 2.6-1.8 1.8-2.3 3-.8 2 .5-.3 1.3 0 1.7.6.5.8.9.8 1.4-.1.5-.7.8-.2.8 1.3 0 2-.6 2.7-2.7 3l-2.6.3 2.5 1.1c1.7.8 2 1.2.8 1.2-.9.1-2 .6-2.4 1.3-.5.8-.2.9.9.5 1-.3 1.7-.2 1.7.4 0 .6.5.7 1 .4.6-.3 1 .3 1 1.4 0 1.8-.9 2.5-3.1 2.3-.8-.1-.2 8.5.7 9.9.5.9.2 1-.9.6-2.2-.8-2.3 2.6-.1 4.7.8.9 1.1 1.6.5 1.6-1.9 0-1.2 4 .7 4.1 1.6.1 1.6.2-.1.6-.9.2-1.5.9-1.2 1.4.4.5.1.9-.4.9-.6 0-1.1.9-1.1 2 0 1.4.5 1.8 1.8 1.4 1.4-.5 1.4-.3-.2 1-1.5 1.2-1.6 1.6-.5 1.7 1 0 1 .2.2.6-1.9.7-1.6 9.4.4 12.3 1.6 2.2 1.6 2.3-.1 1.7-1.6-.6-1.7 0-1.4 6.8.2 5.9.6 7.5 1.8 7.5 1.3 0 1.3.2.1.9-1.1.7-.9 1 1 1.4 2.3.4 2.2.4-.3.6-1.9.1-2.8.7-2.8 1.7s.6 1.4 1.5 1.1c.8-.4 1.7-.2 2 .3.3.5-.3 1.1-1.3 1.4-1.3.4-1.9 1.6-1.9 3.5s.5 2.7 1.3 2.4c.8-.3 1.1.5 1 2.1 0 1.4-.7 2.6-1.3 2.6-.7 0-1.3.4-1.3 1 0 .5.5 1 1.1 1 .5 0 .7.5.3 1.1-.3.6 0 1.5.7 2 1.1.7 1 .9-.3.9-2 0-2.2.8-.8 3 .8 1.2 1.1 1.3 1.9.1 1.4-2.2 2.3.6 1 3.1-.8 1.4-1.4 1.8-1.7 1-.7-2.3-2.2-.1-2.2 3.4 0 2.6.4 3.4 1.8 3.3 1 0 1.2-.3.4-.6-1.5-.6-.6-2.3 1.2-2.3 1.9 0 .8 4.8-1.3 5.3-1.2.3-1 .6.9 1.5l2.5 1.1h-2.3c-1.9.1-2.2.5-1.7 2.2.6 1.6.4 2-.6 1.4-.8-.5-1.1-.4-.6.1.5.5 1.4.9 2 .9 1.9 0 2.4 8.2 2.1 33.5-.2 12.9-.5 44.1-.6 69.2-.2 25.2-.7 45.8-1.1 45.8-.5 0-.5.4-.2 1 .3.5.5 5.2.5 10.5-.2 11.6-.2 11.8.3 18.2.3 2.9.1 5.3-.3 5.3s-.7 1.1-.6 2.5c0 1.4.6 2.5 1.1 2.5.6 0 .5.4-.1.8-1.4.9-1.3 12.4.1 13.4.7.5.7.8-.1.8-1.4 0-1.3 22.2.1 23.2.6.5.6.8-.2.8-.9 0-1.2 3.1-1.1 11.3.1 6.1-.1 12.8-.4 14.7-.3 1.9-.2 4.4.2 5.5.4 1.1.3 3.2-.2 4.8-.6 1.5-.7 3.5-.3 4.5 1.2 2.9 1.2 25.6.1 26.5-.7.5-.6 1 .4 1.7.8.5 1 1 .4 1-.7 0-1 4.3-.9 12.8.1 7-.2 14.4-.6 16.4-.3 2.2-.2 3.8.3 3.8s.6.4.3 1-.1 1 .6 1c.8 0 .8.4.1 1.2-.5.7-.9 5.2-.8 10 .1 5.3-.3 8.8-.9 8.9-.6 0-.6.2.1.5.5.2.9 1.8.8 3.4-.1 1.7.2 3.3.7 3.6.5.3.7 1 .3 1.5-.3.5-.9.7-1.3.5-.7-.5-.6 3.3.4 10.9.4 2.7.7 12.6.8 22l.2 17h-3c-1.7 0-3.4.3-4 .7-.5.3-3.7.5-7 .4-5.3-.2-6-.4-5.9-2.2 0-2.5-5.1-3.3-6-.8-.3.8-1.1 1.2-1.7.8-.9-.5-1-28.4-.5-110.8.6-84.3 1.4-193.2 1.6-210.4v-2.7c.1-2.9 0-5.5 0-6.8-.1-.6.1-6.3.4-12.5.3-8.1.1-11.2-.7-11.2-.8 0-.8-.3-.2-.8.7-.4 1.1-22.7 1.2-64.7.1-35.2.3-64.5.3-65 .1-.6-.2-2.9-.6-5.3-.4-2.3-.3-4.2.2-4.2.8 0 .9-20.2.2-32-.1-2 .2-4.1.6-4.8.4-.7.4-1.8-.1-2.5s-.8-2.3-.6-3.7c.3-2.1.6-19.2 1.4-86.5.1-1.1.1-7.2.1-13.5.1-6.3.1-15.8.2-21 .1-5.2-.1-11.9-.4-14.8-.4-2.8-.4-5.2-.1-5.2.8 0 .4-30.8-.4-32.8-.3-.9 0-1.2.8-.9.8.3 1.4-.1 1.4-.9s-.4-1.4-.9-1.4-.6-.5-.3-1c.3-.6.1-1-.4-1-.6 0-1.1-.5-1.1-1 0-.6.3-.9.8-.9 1.7.3 2.3-.2 1.5-1.4-1-1.6-1.3-3.9-.7-4.9.3-.4 6.6-.8 14-.8H738v28.2zm29.5-26.6c13.2.6 14.2.9 12.5 2.9-.9 1.1-.9 1.5-.1 1.5.7 0 .9.5.5 1.2-.4.6-.8 15-1 32-.2 28.1-.1 30.8 1.4 30.9 1.3 0 1.2.2-.4.9-2 .8-2 1.5-1.8 17.7.1 9.2.2 16.8.4 16.8.1 0 .3 1 .4 2.2.2 1.3 0 2.3-.3 2.3-.4 0-.8 1.1-.9 2.6-.1 1.4.2 2.3.8 1.9.6-.3 1-.1 1 .4 0 .6-.5 1.1-1.1 1.1-.7 0-.9 1-.7 2.5.3 1.4.2 2.5-.2 2.5-1.5 0 .3 6 1.9 6.1 1.4.1 1.3.2-.1.6-1 .2-1.8 1.2-1.9 2.1 0 .9-.1 4.3-.3 7.4-.3 4.5 0 5.8 1.1 5.8 1.2 0 1.2.2-.1 1.5-1.1 1.2-1.5 3.9-1.5 11 0 5.2.4 9.7.9 10 .6.4 1-.2 1.1-1.2 0-1.6.1-1.6.8.2 1.1 2.6.2 5.3-1 3.3-.9-1.4-1.1-1.1-1.3 2.4-.1 1.3.3 2.6.9 3 .6.5.5.8-.3.8-1.6 0-1.4 16.1.2 17.2.7.5.7.8-.2.8-.7 0-1 .5-.6 1.2.4.6.7 2.6.6 4.5-.1 2 .3 3.3 1.1 3.3s.6.4-.3 1c-1.1.7-1.7.4-2.2-1.3-.5-2-.6-1.9-.7.5-.1 1.6.4 2.8.9 2.8.6 0 1 .7 1 1.6 0 .8-.4 1.3-.8 1-.4-.2-.9.4-.9 1.5-.1 1 .5 1.9 1.2 1.9.9 0 1.2.6.8 1.6-.5 1.3-.7 1.3-1.4.2s-.9-1.1-.9 0c0 .7.7 2 1.5 2.8 2 2 1.9 3.4-.1 3.4-1 0-1.4.6-1 1.5.3.8.1 1.5-.5 1.5s-.6.6 0 1.9c.6 1 .7 2.1.4 2.5-.3.3.1.6 1 .6 2.2 0 2.2 1.6 0 2.5-1.7.7-1.6.8.2 1.5 1.6.7 1.7.9.3.9-1.3.1-1.6.9-1.5 3.6.2 2.6.6 3.4 1.7 3 .9-.3.7.2-.5 1.3-2.5 2.2-3 4.3-1.3 5.4 1 .6 1 1 0 1.6-.9.6-1.1 4-.9 13 .2 6.7 0 12.2-.4 12.2-1 0 .1 3.3 1.4 4.1.5.4.5 1.4-.1 2.5-.8 1.6-.9 6.3-.2 7.1.8.9.4 3-.7 4.1-1.4 1.4-.9 6.8.8 8.8.6.8.5 1.4-.6 1.8-1.8.7-1.6 2.8.5 3.8 1.2.5 1.2.7-.2.7-2 .1-2.3 1.4-.8 4.2.8 1.3.7 1.9 0 1.9-1.4 0-.2 4.2 1.4 5.2.7.5.3.8-.9.9-1.9 0-1.9.1-.1.8 1.7.6 1.7.8.4 1.4-1.2.4-1.6 1.6-1.3 4.9.2 2.3.8 4.4 1.4 4.6.6.2.9.8.5 1.3-.3.5 0 .9.6.9.7 0 1 .7.6 1.5-.3.8.2 1.9 1.2 2.4 1.7 1.1 1.6 1.2-1.8 1.6-3.4.4-3.6.6-1.5 1.5l2 .9h-2c-1.6.1-1.7.3-.6 1 .9.6 2.2.6 3.3 0 2.1-1.1 2.4-.3.5 1.6-.9.9-1.9 1-3 .3-1.4-.7-1.7-.5-1.7 1.2 0 1.1.3 1.9.8 1.9 2.5-.4 5.2.2 4.7 1.1-.4.6-1.4 1-2.3.8-1-.1-1.9.2-2.1.7-.2.6-.7 2-1.2 3.3-.5 1.4-.5 3 .1 4.1.6 1.2.5 2.2-.2 2.9-.9.9-.9 1.2 0 1.2.7 0 1.2.5 1.2 1.1 0 .5-.4.7-1 .4-1.4-.8-1.3-.2.5 3.1.9 1.7 1.1 3 .5 3.2-.6.2-1 1.5-1 2.8 0 1.4.4 2.3.9 1.9.5-.3 1.2-.1 1.6.5.3.5-.1 1-.9 1-.9 0-1.7.8-1.7 1.7-.8 11.5-.7 19.3.1 18.8.6-.3 1-.1 1 .4 0 .6-.4 1.1-.8 1.1-1.5 0-1.4 10 0 10 .8.1.6.6-.5 1.4-1.8 1.4-1.8 1.5 0 2.5 1 .6 1.2 1.1.6 1.1-.7 0-1.3.9-1.3 2.1 0 1.1.5 1.7 1 1.4.6-.3 1-.1 1 .5s.4.9.9.5c.5-.3 1.3 0 1.7.6.5.9-.2 1-2.5.6-2.1-.4-3-.3-2.6.4.4.5.8 2.4 1 4.2.1 1.8.6 4.1 1.1 5.1.5 1.3.4 1.7-.4 1.2-.6-.3-1.3-.2-1.7.4-.3.5.1 1 .9 1 2.1 0 2 1.6-.1 3-1.2.7-1.4 1.3-.6 1.6.6.3.9 1.6.7 3-.3 1.5 0 2.4.8 2.4.9 0 .8.3-.2 1-.8.5-1.1 1-.6 1 .5 0 .3.7-.4 1.5-.8 1-.9 1.5-.2 1.5.6 0 .9.7.5 1.6-.3.9 0 2 .8 2.5s.9.9.3.9c-.7 0-1.2 2.6-1.2 7.3 0 4-.1 7.7-.3 8.2-.5 2.9.2 8.5 1.1 8 .6-.3 1-.2 1 .4 0 .5-.6 1.1-1.2 1.4-.8.3-.1.9 1.5 1.6 3.4 1.3 3.5 2.1.2 1.5-2.2-.4-2.5-.1-2.5 2.6 0 1.8.4 2.9 1 2.5.6-.3 1-.2 1 .4 0 .5-.6 1.1-1.2 1.3-.8.3-1.3 2.6-1.3 6.1-.1 4.5.2 5.7 1.5 5.7s1.3.1 0 1c-1.9 1.2-2.3 9.6-.7 12.9.9 1.9.9 2.5 0 2.8-1.6.6-1.7 4.5-.1 6.1.8.8.8 1.2.1 1.2-.6 0-1 3.9-1 11 .1 8.7.4 11 1.5 11s1 .3-.2 1.6c-1.9 1.9-2.1 3.4-.3 3.4.8 0 .7.4-.3 1-1.2.8-1 1 1 1.1 2.4.2 2.4.2.3.6-1.3.2-2.3.9-2.3 1.4 0 .6.5.7 1 .4.6-.3 1-.2 1 .3 0 .6-.7 1.3-1.6 1.6-.8.3-1.2 1.1-.8 1.7.9 1.5 1.1 12.9.2 12.9-1.2 0 0 7.2 1.3 8.1 1.1.6 1 .9-.4 1.5-1.8.7-2.4 3.4-.7 3.4.7 0 .7.6 0 2-.8 1.5-.8 2 .2 2 .8 0 .9.3.3.8-1.4.9-1.6 12.1-.4 14.4.7 1.2.6 1.8-.1 1.8s-1 2.8-.9 8c.1 5.1.6 8 1.3 8 .7 0 .7.3.1.8-1.4 1-1.6 6.5-.2 7.4.9.6.9.8.1.8-.7 0-1.2 2.1-1.3 5.1 0 2.8-.3 5.4-.6 5.9-.3.4.2 1.3 1.1 2 .9.8 1.1 1.6.5 1.9-1.3.8-2.2 9.1-1 9.1.6 0 .7.4.4 1-1.1 1.9-1.5 15-.4 15 .5 0 .7.5.3 1.1-.3.6-.8 2.6-1 4.5-.2 2.7.1 3.4 1.4 3.4 1.4 0 1.4.2.3.9-.8.5-1.2 1.8-.8 3 .3 1.2.1 2.4-.4 2.7-.5.3-.7 1-.4 1.5.4.5.2.9-.3.9-1.1 0-.4 7.6.8 9.9.5.8.4 2.6-.2 4-.5 1.5-1.1 5.2-1.2 8.4-.2 4.3-.8 6.3-2.5 8-1.1 1.3-1.8 2.7-1.4 3 .3.4.1.7-.6.7s-.9.5-.6 1.1c.4.6 1.3.8 2.1.5.8-.3 1.4.1 1.4.8 0 1.9-4.3 3.5-11.1 4.2-4.8.5-6 .3-6.5-1-.3-.9-1-1.4-1.4-1.1-.5.3-1.1.1-1.5-.5-.3-.5-.1-1 .4-1 .6 0 1.1-.7 1.1-1.5s-.5-1.5-1.1-1.5c-1.5 0-1.1-488.9.5-490.9.8-1.1.8-1.5-.2-1.9-1-.3-1-.7-.1-1.8.6-.8.7-1.4.2-1.4-.5 0-.6-2.6-.3-6 .3-3.6.2-6.4-.5-7.1-.7-.7-.7-1.2.1-1.7 1.4-1 1.7-11.2.3-12.8-.7-.8-.7-1.4-.2-1.4.6 0 1-3.2 1.1-7 .1-3.9-.3-7-.9-7-.5 0-.9-.5-.9-1.1 0-.5.5-.7 1-.4.6.4 1-1 1-3.4 0-2.6-.5-4.1-1.2-4.1-1 0-1-.2 0-.9.9-.5 1.2-2.8 1.1-7.3-.1-3.6.1-7 .5-7.6.4-.7.3-1.2-.1-1.2-.5 0-.6-2.7-.3-6.1.5-4.8.3-6.2-1-7-1.2-.8-1.2-1.1-.1-1.6 1.1-.5 1.1-.7 0-1.5-1.1-.7-1.1-1.1-.1-1.5.6-.2 1.2-1.1 1.2-1.9 0-.9-.4-1.2-1-.9-.5.3-1 .2-1-.4 0-.5.4-1.1.9-1.3.8-.3 1.6-11.4 1.1-14.3-.1-.6-.1-1.5 0-2 .1-.6.2-3.2.1-5.9-.1-3.1.3-5.2 1.1-5.7 1-.7 1-.9.1-.9-.7 0-1.3-.5-1.3-1.1 0-.5.4-.8.9-.5.5.4.7-.3.4-1.4-.3-1.1-1.3-2-2.2-2.1-1.4 0-1.4-.1-.1-.7 1.8-.8 2.7-6.2 1-6.2-.6 0-.8-.5-.3-1.3.4-.6.8-5.1.9-10 0-7.3-.2-8.7-1.5-8.7-1.3-.1-1.3-.3.2-1.1 1.7-1 1.8-2.9 1.3-34.6l-.6-33.5 3.8.6c2 .4 8.7.9 14.7 1.2zM795 301c0 .8 1.2 3.8 2.6 6.5 2.5 4.7 5.7 15.1 8.8 29 .8 3.3 3.1 10.3 5.1 15.5 4 10.3 8.1 21.2 14.3 38.5 2.1 6 4.6 12.3 5.4 14 .9 1.6 1.9 4.6 2.3 6.5.8 4.2 3.7 10.9 8.7 20.7 2.6 5 4.2 10.1 5.3 16.4.9 5.1 2.2 10.4 2.9 11.8 1.9 3.6 9.3 25.9 10 29.8.3 1.8 2.1 6.6 4 10.6 1.8 4 4.1 9.4 5 12 .9 2.6 3.4 8.2 5.6 12.3 3 5.7 4 8.7 4 12.2 0 5.7 1.5 14 4.8 25.7 1.3 4.9 3.3 12.6 4.3 17s2.5 10.9 3.3 14.5c.8 3.6 2.9 10.1 4.7 14.5 1.7 4.4 3.5 10.2 3.9 13 1.2 7.5 4.4 16.7 8.3 23.7 3 5.5 3.5 7.5 4.1 16.2 1 13.1 2.9 22.4 6.6 32.1 4.5 11.6 4.9 13.2 4.9 18.9 0 2.8.7 6.5 1.6 8.3.9 1.8 3.2 11.5 5.2 21.5 3.2 16.6 3.6 20.4 4 40.2.6 23.2.2 26.6-4.3 40.7-1.3 4.2-2.8 9.9-3.4 12.7-.5 2.8-3 10.3-5.5 16.6-2.5 6.4-4.5 12.1-4.5 12.6 0 .6-.5 1-1 1-.7 0-.8.6-.1 1.7.6 1.2.5 2-.3 2.8-.7.5-2.1 3.2-3 6-2.9 8.2-4.6 11.5-9.2 17.8-2.4 3.2-4.4 6.6-4.4 7.5 0 .8-1.1 2.9-2.3 4.6-1.3 1.7-3.2 5-4.2 7.3-1 2.4-2.4 4.3-2.9 4.3-1 0-7.6 9.2-7.6 10.5 0 .3-1.3 1.8-3 3.3-1.6 1.6-3 3.4-3 4.1 0 1.1-1.4 1.5-3.5 1.1-.5-.1-.7.2-.3.6.8.8-5.2 8-6.4 7.7-.4-.2-.6.3-.3 1 .2.6-3.5 4.6-8.2 8.7-4.7 4.1-10.2 9.1-12.2 11.1s-5 3.9-6.6 4.4c-1.7.4-2.4 1-1.8 1.2.7.3-.5 1.8-3 3.7-2.9 2.3-4.6 3-5.4 2.3-1.2-.9-1.7-.3-1.4 1.7.1.5-.6.6-1.5.2-1-.4-1.7 0-2.1 1.2-.6 2.3-8.5 6.7-14.8 8.3-2.8.6-7.1 2.3-9.7 3.5-2.6 1.3-5.3 2.4-6 2.3-1 0-1-.2 0-.6.6-.2 1-.9.6-1.4-.3-.5.2-.9 1-.9s1.8-.5 2.1-1c.4-.6.3-1-.2-.9-.4.1-1.8-.2-3-.6l-2.3-.7V799.1c0-104.3-.3-261.6-.6-349.6l-.5-160 2.5 5c1.4 2.7 2.6 5.7 2.6 6.5zM559.7 512.7c-.6 161.5-1.1 245.6-2 330.5-.1 9.1.2 15 .8 15.2.6.3.5.8-.2 1.3-.8.6-1 2-.5 4.3.8 4.1.7 9.9-.3 15.2-.6 2.8-.4 3.8.5 3.8s1 .4.2 1.3c-.6.7-.7 1.8-.3 2.5.8 1.4.7 9-.2 9.9-.3.3 0 1.4.6 2.4 1 1.6.9 2.1-.3 2.9-1.1.7-1.2 1.2-.3 2.1.7.7.9 1.8.4 2.8-1.4 2.6-1.2 21.1.2 21.1.7 0 .6.4-.3 1-1 .6-1.1 1-.2 1 .6 0 1.2.7 1.2 1.6 0 .8-.5 1.2-1.1.9-.7-.5-1 3.6-.7 13.3.1 7.8 0 14.3-.2 14.6-.3.2-.3 3.9 0 8 .3 4.2.2 7.6-.2 7.6-.5 0-.8.9-.8 2s.6 2 1.3 2c.9 0 .8.3-.2.9-.9.6-1 1.1-.2 1.5.6.4.9 1.9.6 3.4-.3 1.5-.5 6-.6 9.9-.1 4-.3 7.3-.6 7.3-3.6 0-15.4-4.5-25.8-9.7-30.3-15.3-55.8-34.7-66.8-50.8-2.2-3.3-6.6-8.5-9.6-11.6-6.2-6.2-13-16.2-25.9-38.1-2.9-4.8-5.2-9.5-5.2-10.5 0-.9-2.2-5.6-4.9-10.3-2.7-4.7-5.2-10.1-5.6-12-.4-1.9-1.8-6.3-3.1-9.8-1.3-3.4-3.5-9-4.8-12.5-1.3-3.4-2.7-9.4-3.1-13.2-.3-3.9-1.2-10.8-2-15.5-.7-4.7-1.1-9.7-.8-11.1.3-1.4-.2-7.3-1.1-13-1.1-8.1-1.3-12.8-.6-20.9 1.1-12.4 1.4-13.9 4.7-25 1.3-4.7 2.9-10.3 3.5-12.5 2.5-10 3.2-12.2 5.3-15.5 1.3-1.9 2.6-5.3 3-7.5.4-2.1 1.5-5.1 2.4-6.5 3.4-4.9 10-19.7 13.5-30 4.7-14 9.7-26.4 19.2-47 1.8-4.2 3.4-8.1 3.4-8.8 0-.7 1.9-5.2 4.1-10 2.3-4.8 4.6-10.1 5-11.7 1.4-5.2 4.7-13.8 6.8-18 1.2-2.1 2.1-4.8 2.1-5.8s1.4-5.1 3-9c3.9-9.1 6.9-16.1 9-21.2.9-2.2 2.5-6.5 3.4-9.5 1-3 3-8.7 4.6-12.5 3.7-9.4 13-37.9 13-39.9 0-.9 1.4-4.5 3-7.9 1.7-3.5 3-6.8 3-7.3 0-1.4 6.7-17.4 7.9-18.8.5-.6 2.4-5.2 4.2-10.1 1.8-5 5-11.7 7.1-15.1 2.1-3.4 3.8-7 3.8-8 0-1.1.9-3.7 1.9-5.7 3.2-6.3 8.1-21.5 8.1-25.3 0-1.9.8-5.1 1.9-7.2 1-2 3.3-9.6 5.1-16.7 2.8-11.1 9.6-29.5 10.9-29.5.2 0 .1 85.8-.2 190.7z"/><path d="M655.1 986.6c0 1.1.3 1.4.6.6.3-.7.2-1.6-.1-1.9-.3-.4-.6.2-.5 1.3zM655.1 1004.6c0 1.1.3 1.4.6.6.3-.7.2-1.6-.1-1.9-.3-.4-.6.2-.5 1.3zM655.1 1011.6c0 1.1.3 1.4.6.6.3-.7.2-1.6-.1-1.9-.3-.4-.6.2-.5 1.3zM735.5 334c.3.5.8 1 1.1 1 .2 0 .4-.5.4-1 0-.6-.5-1-1.1-1-.5 0-.7.4-.4 1zM733 455c0 .5.7 1 1.6 1 .8 0 1.2-.5.9-1-.3-.6-1-1-1.6-1-.5 0-.9.4-.9 1zM774.3 618.1c.1 1 .6 1.9 1.2 1.9 1.6 0 1.5-2.8-.1-3.4-.8-.3-1.2.3-1.1 1.5zM759 1004.9c-2 .6-2.2.8-.8 1.3.9.4 2.2.1 2.8-.8.7-.8 1.1-1.4.9-1.3-.2.1-1.5.4-2.9.8zM1154.2 856c0 1.4.2 1.9.5 1.2.2-.6.2-1.8 0-2.5-.3-.6-.5-.1-.5 1.3z"/></svg>